<?xml version="1.0" encoding="utf-8"?>
<!-- Generator: Adobe Illustrator 22.0.1, SVG Export Plug-In . SVG Version: 6.00 Build 0)  -->
<svg version="1.1" id="Capa_1" xmlns="http://www.w3.org/2000/svg" xmlns:xlink="http://www.w3.org/1999/xlink" x="0px" y="0px"
	 viewBox="0 0 11 11" style="enable-background:new 0 0 11 11;" xml:space="preserve">
<g>
	<g>
		<path d="M5.5,0.4c0.5,0,1.2,0.4,2,1.3l1.7,1.8l1.1,1.2c0.2,0.3,0.3,0.5,0.3,0.8c0,0.4-0.4,1.1-1.3,1.8c-0.4,0.4-1,0.9-1.7,1.6
			c-0.9,1-1.6,1.5-2.1,1.5c-0.4,0-0.9-0.4-1.6-1.1C3,8.6,2.3,7.9,1.8,7.4c-1-0.9-1.4-1.5-1.4-2c0-0.4,0.4-1,1.3-1.8
			c0.4-0.4,1.1-1,1.9-1.9C4.4,0.9,5,0.4,5.5,0.4z"/>
	</g>
</g>
</svg>
