<?xml version="1.0" encoding="utf-8"?>
<!-- Generator: Adobe Illustrator 22.0.1, SVG Export Plug-In . SVG Version: 6.00 Build 0)  -->
<svg version="1.1" id="Capa_1" xmlns="http://www.w3.org/2000/svg" xmlns:xlink="http://www.w3.org/1999/xlink" x="0px" y="0px"
	 viewBox="0 0 70 70" style="enable-background:new 0 0 70 70;" xml:space="preserve">
<style type="text/css">
	.st0{fill:#FFFFFF;}
</style>
<g>
	<g>
		<circle cx="35" cy="35" r="34"/>
	</g>
	<g>
		<g>
			<path class="st0" d="M56,24.4c0-1.2-1-2.1-2.2-2.1c0,0,0,0,0,0l-37.7,0.1c-0.6,0-1.1,0.2-1.5,0.6c-0.4,0.4-0.6,0.9-0.6,1.5
				l0,21.2c0,0.6,0.2,1.1,0.6,1.5c0.4,0.4,0.9,0.6,1.5,0.6c0,0,0,0,0,0l37.7-0.1c1.2,0,2.1-1,2.1-2.2L56,24.4z M51.5,24.4L35,35.8
				L18.5,24.4L51.5,24.4z M42,38l9.8,7.6l-33.5,0l9.8-7.6c0.5-0.4,0.6-1,0.2-1.5c-0.4-0.5-1-0.6-1.5-0.2l-10.6,8.2l0-19.1L34.4,38
				c0.2,0.1,0.4,0.2,0.6,0.2c0.2,0,0.4-0.1,0.6-0.2l18.2-12.7l0,19.1l-10.6-8.2c-0.5-0.4-1.1-0.3-1.5,0.2C41.4,37,41.5,37.6,42,38z"
				/>
		</g>
	</g>
</g>
</svg>
