<?xml version="1.0" encoding="utf-8"?>
<!-- Generator: Adobe Illustrator 22.0.1, SVG Export Plug-In . SVG Version: 6.00 Build 0)  -->
<svg version="1.1" id="Capa_1" xmlns="http://www.w3.org/2000/svg" xmlns:xlink="http://www.w3.org/1999/xlink" x="0px" y="0px"
	 viewBox="0 0 460 86" style="enable-background:new 0 0 460 86;" xml:space="preserve">
<style type="text/css">
	.st0{fill:#FFFFFF;stroke:#FFFFFF;stroke-miterlimit:10;}
	.st1{fill:#FFFFFF;}
</style>
<g>
	<g>
		<path class="st0" d="M91.4,63.5c0-0.8,0.3-1.4,0.8-1.8c0.6-0.4,1.3-0.6,2.3-0.6H95V44.2h-2.2c-0.9,0-1.4-0.6-1.4-1.7
			c0-0.8,0.3-1.4,0.8-1.8c0.6-0.4,1.3-0.6,2.3-0.6h7.6v21l1.8,0.9c0.8,0.4,1.3,0.7,1.6,1c0.3,0.3,0.5,0.7,0.5,1.1
			c0,0.3-0.1,0.6-0.2,0.7c-0.1,0.2-0.4,0.2-0.7,0.2H92.7C91.8,65.1,91.4,64.6,91.4,63.5z M95.1,35.6c-0.9-0.8-1.3-1.9-1.3-3.3
			c0-1.4,0.4-2.5,1.3-3.3c0.9-0.8,2-1.2,3.3-1.2c1.3,0,2.4,0.4,3.3,1.2c0.9,0.8,1.3,1.9,1.3,3.3c0,1.4-0.4,2.5-1.3,3.3
			c-0.9,0.8-2,1.2-3.3,1.2C97.1,36.8,96,36.4,95.1,35.6z"/>
		<path class="st0" d="M108,74.3c0-0.8,0.3-1.4,0.8-1.8s1.3-0.6,2.3-0.6h0.5V44.2h-2.2c-0.9,0-1.4-0.6-1.4-1.7
			c0-0.8,0.3-1.4,0.8-1.8s1.3-0.6,2.3-0.6h7.4v2.1l0.2,0.1c2.2-1.8,4.5-2.7,7.1-2.7c2.1,0,4.1,0.5,5.8,1.4c1.8,0.9,3.2,2.4,4.3,4.4
			c1.1,2,1.7,4.5,1.7,7.5c0,4.1-1.2,7.3-3.6,9.6c-2.4,2.3-5.5,3.4-9.5,3.4c-0.9,0-1.9-0.1-3-0.3c-1.1-0.2-2.1-0.5-3-0.9V72l1.8,0.9
			c0.8,0.4,1.3,0.7,1.6,1c0.3,0.3,0.5,0.7,0.5,1.1c0,0.3-0.1,0.6-0.2,0.7c-0.1,0.2-0.4,0.2-0.7,0.2h-12.3
			C108.5,76,108,75.4,108,74.3z M128.7,59.5c1.3-1.4,1.9-3.6,1.9-6.5c0-3.1-0.6-5.3-1.7-6.8c-1.1-1.5-2.7-2.2-4.8-2.2
			c-1.4,0-2.7,0.4-3.8,1.3c-1.1,0.9-1.6,2.1-1.6,3.6v11.6c0.7,0.4,1.5,0.7,2.3,0.8c0.9,0.2,1.7,0.3,2.5,0.3
			C125.7,61.6,127.4,60.9,128.7,59.5z"/>
		<path class="st0" d="M147.4,64.5c-2.1-1-3.7-2.4-4.9-4.4c-1.2-1.9-1.8-4.3-1.8-7.1c0-2.8,0.6-5.3,1.7-7.3c1.1-2,2.7-3.5,4.6-4.6
			c1.9-1,4.1-1.5,6.5-1.5c2.2,0,4.3,0.4,6.1,1.3c1.8,0.9,3.2,2.1,4.2,3.8c1,1.6,1.5,3.6,1.5,5.7c0,0.7-0.1,1.5-0.3,2.3
			c-0.2,0.8-0.5,1.5-0.8,2.1h-16.4c0,2.3,0.7,4,2,5.1c1.3,1.1,2.9,1.7,4.8,1.7c1.2,0,2.2-0.1,3-0.4c0.8-0.3,1.8-0.7,3-1.3
			c0.1-0.1,0.3-0.2,0.6-0.3c0.3-0.2,0.5-0.3,0.7-0.3c0.2-0.1,0.3-0.1,0.4-0.1c0.5,0,0.9,0.2,1.3,0.6c0.4,0.4,0.5,0.9,0.5,1.5
			c0,0.6-0.2,1.1-0.5,1.5c-0.3,0.4-0.9,0.9-1.6,1.3c-2.2,1.3-4.8,1.9-7.7,1.9C151.8,65.9,149.5,65.4,147.4,64.5z M158,50.5
			c0.2-0.5,0.3-1,0.3-1.6c0-1.5-0.4-2.7-1.3-3.6c-0.8-0.9-2-1.3-3.5-1.3c-1.5,0-2.8,0.6-3.8,1.8c-1.1,1.2-1.6,2.8-1.8,4.8H158z"/>
		<path class="st0" d="M170.8,64.1c-1.6-1.2-2.3-3-2.3-5.3c0-2.7,0.9-4.6,2.8-5.8c1.9-1.2,4.4-2.1,7.4-2.5l5.3-0.8V48
			c0-1.3-0.4-2.3-1.2-3c-0.8-0.7-1.9-1-3.4-1c-0.9,0-1.8,0.1-2.9,0.4c-1,0.3-1.8,0.6-2.4,0.9l-0.6,2c-0.2,0.7-0.5,1.3-0.9,1.7
			c-0.4,0.4-0.9,0.6-1.5,0.6c-0.4,0-0.8-0.1-1-0.3c-0.2-0.2-0.3-0.5-0.3-0.8v-5.9c1.5-0.8,3.2-1.5,5.1-2.1c1.9-0.5,3.8-0.8,5.6-0.8
			c3.1,0,5.6,0.7,7.6,2.2c1.9,1.5,2.9,3.6,2.9,6.4v13.1l1.5,0.8c0.8,0.4,1.3,0.7,1.6,1s0.5,0.7,0.5,1.1c0,0.3-0.1,0.6-0.2,0.7
			c-0.1,0.2-0.4,0.2-0.7,0.2h-9.7v-2.3h-0.2c-0.8,0.9-1.9,1.7-3.3,2.3c-1.4,0.6-2.7,0.8-4.2,0.8C174.2,65.9,172.4,65.3,170.8,64.1z
			 M182.4,59.9c1.1-1,1.6-2.1,1.6-3.4v-2.9l-4.1,0.7c-2.9,0.5-4.4,1.9-4.4,4.1c0,0.9,0.3,1.6,0.8,2.2c0.5,0.6,1.3,0.8,2.3,0.8
			C180.1,61.4,181.4,60.9,182.4,59.9z"/>
		<path class="st0" d="M197.2,63.5c0-0.8,0.3-1.4,0.8-1.8c0.6-0.4,1.3-0.6,2.3-0.6h0.5V44.2h-2.2c-0.9,0-1.4-0.6-1.4-1.7
			c0-0.8,0.3-1.4,0.8-1.8c0.6-0.4,1.3-0.6,2.3-0.6h7.3v3.1h0.2c1.3-1.1,2.6-1.9,4-2.6c1.4-0.6,2.9-1,4.4-1c2.5,0,4.5,0.7,6.1,2.1
			c1.6,1.4,2.3,3.3,2.3,5.8v13.6l1.8,0.9c0.8,0.4,1.3,0.7,1.6,1c0.3,0.3,0.5,0.7,0.5,1.1c0,0.3-0.1,0.6-0.2,0.7
			c-0.1,0.2-0.4,0.2-0.7,0.2h-12.4c-0.9,0-1.4-0.6-1.4-1.7c0-0.8,0.3-1.4,0.8-1.8c0.6-0.4,1.3-0.6,2.3-0.6h0.5V48.2
			c0-2.7-1.3-4-3.8-4c-1,0-2,0.3-3.1,0.8c-1.1,0.6-2,1.3-2.8,2.2v13.9l1.8,0.9c0.8,0.4,1.3,0.7,1.6,1c0.3,0.3,0.5,0.7,0.5,1.1
			c0,0.3-0.1,0.6-0.2,0.7c-0.1,0.2-0.4,0.2-0.7,0.2h-12.4C197.7,65.1,197.2,64.6,197.2,63.5z"/>
		<path class="st0" d="M236.6,64.5c-1.8-0.9-3.3-2.4-4.3-4.3c-1.1-1.9-1.6-4.4-1.6-7.2c0-2.7,0.6-5.1,1.7-7.1c1.1-2,2.7-3.6,4.7-4.6
			c2-1.1,4.1-1.6,6.5-1.6c2.3,0,4.3,0.5,6.2,1.4v-7.9h-2.2c-0.9,0-1.4-0.6-1.4-1.7c0-0.8,0.3-1.4,0.8-1.8c0.6-0.4,1.3-0.6,2.3-0.6
			h7.4v32.1l1.8,0.9c0.8,0.4,1.3,0.7,1.6,1s0.5,0.7,0.5,1.1c0,0.3-0.1,0.6-0.2,0.7c-0.1,0.2-0.4,0.2-0.7,0.2h-9.8v-2.3h-0.2
			c-0.8,0.9-1.8,1.7-3,2.3c-1.2,0.6-2.6,0.8-4.1,0.8C240.4,65.9,238.4,65.4,236.6,64.5z M248.1,60.2c1-0.9,1.5-2.2,1.5-3.8V45.4
			c-0.6-0.4-1.4-0.7-2.2-1c-0.9-0.3-1.7-0.4-2.6-0.4c-2,0-3.7,0.8-5,2.4c-1.3,1.6-2,3.8-2,6.6c0,2.9,0.6,5.1,1.8,6.5
			c1.2,1.4,2.7,2.2,4.7,2.2C245.8,61.6,247.1,61.1,248.1,60.2z"/>
		<path class="st0" d="M263.1,63.5c0-0.8,0.3-1.4,0.8-1.8c0.6-0.4,1.3-0.6,2.3-0.6h0.5V44.2h-2.2c-0.9,0-1.4-0.6-1.4-1.7
			c0-0.8,0.3-1.4,0.8-1.8c0.6-0.4,1.3-0.6,2.3-0.6h7.6v21l1.8,0.9c0.8,0.4,1.3,0.7,1.6,1c0.3,0.3,0.5,0.7,0.5,1.1
			c0,0.3-0.1,0.6-0.2,0.7c-0.1,0.2-0.4,0.2-0.7,0.2h-12.4C263.6,65.1,263.1,64.6,263.1,63.5z M266.8,35.6c-0.9-0.8-1.3-1.9-1.3-3.3
			c0-1.4,0.4-2.5,1.3-3.3c0.9-0.8,2-1.2,3.3-1.2c1.3,0,2.4,0.4,3.3,1.2c0.9,0.8,1.3,1.9,1.3,3.3c0,1.4-0.4,2.5-1.3,3.3
			c-0.9,0.8-2,1.2-3.3,1.2C268.8,36.8,267.7,36.4,266.8,35.6z"/>
		<path class="st0" d="M280.1,63.5c0-0.8,0.3-1.4,0.8-1.8c0.6-0.4,1.3-0.6,2.3-0.6h0.5V44.2h-2.2c-0.9,0-1.4-0.6-1.4-1.7
			c0-0.8,0.3-1.4,0.8-1.8c0.6-0.4,1.3-0.6,2.3-0.6h7.3v3.1h0.2c1.3-1.1,2.6-1.9,4-2.6c1.4-0.6,2.9-1,4.4-1c2.5,0,4.5,0.7,6.1,2.1
			c1.6,1.4,2.3,3.3,2.3,5.8v13.6l1.8,0.9c0.8,0.4,1.3,0.7,1.6,1c0.3,0.3,0.5,0.7,0.5,1.1c0,0.3-0.1,0.6-0.2,0.7
			c-0.1,0.2-0.4,0.2-0.7,0.2h-12.4c-0.9,0-1.4-0.6-1.4-1.7c0-0.8,0.3-1.4,0.8-1.8s1.3-0.6,2.3-0.6h0.5V48.2c0-2.7-1.3-4-3.8-4
			c-1,0-2,0.3-3.1,0.8c-1.1,0.6-2,1.3-2.8,2.2v13.9l1.8,0.9c0.8,0.4,1.3,0.7,1.6,1c0.3,0.3,0.5,0.7,0.5,1.1c0,0.3-0.1,0.6-0.2,0.7
			c-0.1,0.2-0.4,0.2-0.7,0.2h-12.4C280.5,65.1,280.1,64.6,280.1,63.5z"/>
		<path class="st0" d="M321.6,76.8c-1.6-0.4-2.9-0.9-3.9-1.5c-0.7-0.4-1.3-0.9-1.6-1.3c-0.3-0.4-0.5-0.9-0.5-1.5
			c0-0.6,0.2-1.1,0.5-1.5c0.4-0.4,0.8-0.6,1.3-0.6c0.2,0,0.4,0.1,0.6,0.2c0.2,0.1,0.4,0.2,0.6,0.3c0.2,0.1,0.3,0.2,0.4,0.3
			c2.2,1.3,4.5,1.9,7,1.9c2.2,0,3.9-0.6,5-1.7c1.1-1.2,1.7-2.7,1.7-4.7V63h-0.2c-0.7,0.9-1.7,1.6-2.9,2.2c-1.2,0.5-2.6,0.8-4.2,0.8
			c-2.1,0-4.1-0.5-5.9-1.4c-1.8-0.9-3.3-2.4-4.3-4.3c-1.1-1.9-1.6-4.4-1.6-7.2c0-3,0.6-5.5,1.9-7.5c1.3-2,3-3.5,5.1-4.4
			c2.1-0.9,4.4-1.4,6.9-1.4c2.2,0,4.4,0.4,6.5,1.1c2.2,0.7,4,1.7,5.6,3v21.9c0,3.7-1.2,6.6-3.5,8.7c-2.3,2.1-5.6,3.1-9.7,3.1
			C324.8,77.4,323.2,77.2,321.6,76.8z M331,60.2c1-0.9,1.5-2.2,1.5-3.8V45.1c-1.5-0.7-3.1-1.1-4.8-1.1c-2,0-3.7,0.8-5,2.4
			c-1.3,1.6-2,3.8-2,6.6c0,2.9,0.6,5.1,1.8,6.5c1.2,1.4,2.7,2.2,4.7,2.2C328.7,61.6,330,61.1,331,60.2z"/>
		<path class="st0" d="M346.5,64.7c-0.8-0.8-1.2-1.8-1.2-2.9c0-1.2,0.4-2.2,1.2-2.9c0.8-0.8,1.8-1.2,2.9-1.2c1.1,0,2.1,0.4,2.9,1.2
			c0.8,0.8,1.2,1.8,1.2,2.9c0,1.2-0.4,2.2-1.2,2.9c-0.8,0.8-1.8,1.2-2.9,1.2C348.2,65.9,347.3,65.5,346.5,64.7z"/>
		<path class="st0" d="M364.8,64.4c-2.1-1-3.7-2.5-4.9-4.5c-1.2-2-1.8-4.4-1.8-7.1c0-2.9,0.6-5.3,1.8-7.3c1.2-2,2.8-3.4,4.8-4.4
			c2-0.9,4.1-1.4,6.4-1.4c1.9,0,3.7,0.3,5.4,0.9c1.7,0.6,3,1.3,4,2.2v5.7c0,0.3-0.1,0.6-0.3,0.8c-0.2,0.2-0.6,0.3-1,0.3
			c-1.2,0-1.9-0.7-2.3-2.2l-0.6-2.3c-1.2-0.7-2.6-1.1-4.3-1.1c-2,0-3.6,0.7-4.9,2.2c-1.3,1.5-1.9,3.7-1.9,6.6c0,2.9,0.7,5.1,2,6.6
			c1.3,1.5,3.1,2.2,5.3,2.2c0.9,0,1.8-0.1,2.6-0.4c0.8-0.3,1.7-0.7,2.6-1.3c0.1-0.1,0.3-0.2,0.5-0.3c0.2-0.2,0.4-0.3,0.6-0.3
			c0.2-0.1,0.3-0.1,0.4-0.1c0.5,0,0.9,0.2,1.3,0.6c0.3,0.4,0.5,0.9,0.5,1.5c0,1.1-0.8,2-2.3,2.9c-1.9,1.2-4.2,1.7-6.9,1.7
			C369.2,65.9,366.9,65.4,364.8,64.4z"/>
		<path class="st0" d="M390.3,64.5c-1.9-0.9-3.5-2.4-4.7-4.4c-1.2-2-1.8-4.4-1.8-7.3c0-2.9,0.6-5.4,1.8-7.3c1.2-2,2.7-3.4,4.7-4.4
			c2-0.9,4.1-1.4,6.5-1.4c2.4,0,4.5,0.5,6.5,1.4c2,0.9,3.5,2.4,4.7,4.4c1.2,2,1.8,4.4,1.8,7.3c0,2.9-0.6,5.4-1.8,7.3
			c-1.2,2-2.8,3.5-4.7,4.4c-1.9,0.9-4.1,1.4-6.5,1.4C394.4,65.9,392.3,65.4,390.3,64.5z M401.1,59.3c1-1.5,1.5-3.7,1.5-6.6
			c0-2.9-0.5-5.1-1.5-6.6c-1-1.5-2.4-2.2-4.3-2.2c-1.9,0-3.3,0.7-4.3,2.2c-1,1.5-1.5,3.7-1.5,6.6c0,2.9,0.5,5.1,1.5,6.6
			c1,1.5,2.4,2.3,4.3,2.3C398.7,61.6,400.1,60.8,401.1,59.3z"/>
		<path class="st0" d="M412.6,63.5c0-0.8,0.3-1.4,0.8-1.8c0.6-0.4,1.3-0.6,2.3-0.6h0.5V44.2H414c-0.9,0-1.4-0.6-1.4-1.7
			c0-0.8,0.3-1.4,0.8-1.8c0.6-0.4,1.3-0.6,2.3-0.6h7.3v3.1h0.2c2.9-2.4,5.7-3.6,8.4-3.6c1.6,0,3.1,0.3,4.3,1
			c1.2,0.7,2.2,1.6,2.8,2.9c2.9-2.6,5.9-3.9,9-3.9c2.4,0,4.3,0.7,5.8,2c1.5,1.4,2.3,3.3,2.3,5.7v13.8l1.8,0.9c0.7,0.4,1.2,0.7,1.5,1
			c0.3,0.3,0.4,0.7,0.4,1.1c0,0.3-0.1,0.6-0.2,0.7c-0.1,0.2-0.4,0.2-0.7,0.2h-12c-0.9,0-1.4-0.6-1.4-1.7c0-0.8,0.3-1.4,0.8-1.8
			s1.3-0.6,2.3-0.6h0.3V48c0-1.3-0.3-2.3-0.8-2.9c-0.5-0.6-1.4-1-2.7-1c-1,0-2,0.3-3,0.8c-1,0.5-1.9,1.2-2.7,2v14.2l1.8,0.9
			c0.7,0.4,1.2,0.7,1.5,1c0.3,0.3,0.4,0.7,0.4,1.1c0,0.3-0.1,0.6-0.2,0.7c-0.1,0.2-0.4,0.2-0.7,0.2h-12c-0.9,0-1.4-0.6-1.4-1.7
			c0-0.8,0.3-1.4,0.8-1.8s1.3-0.6,2.3-0.6h0.3V48c0-1.3-0.3-2.3-0.8-2.9c-0.5-0.6-1.4-1-2.7-1c-1,0-2,0.3-3,0.8
			c-1,0.5-1.9,1.2-2.7,2v14.2l1.8,0.9c0.7,0.4,1.2,0.7,1.5,1c0.3,0.3,0.4,0.7,0.4,1.1c0,0.3-0.1,0.6-0.2,0.7
			c-0.1,0.2-0.4,0.2-0.7,0.2H414C413.1,65.1,412.6,64.6,412.6,63.5z"/>
	</g>
	<g>
		<g>
			<path class="st1" d="M46.8,29.2v23.6c0,3.5,0.5,6,1.5,7.5c1,1.5,2.8,2.3,5.4,2.5c0.8,0.1,1.1,0.4,1.1,1.1c0,0.5-0.3,0.7-1,0.7
				c-0.1,0-0.4,0-0.8,0l-2.4-0.1l-3.9-0.3c-0.3,0-0.7,0-1.3,0c-1.2,0-2.3,0-3.3,0.1l-6.9,0.4c-0.7,0.1-1.2,0.1-1.5,0.1
				c-0.6,0-1-0.3-0.9-0.8c0-0.5,0.1-0.8,0.3-0.9c0.2-0.1,0.6-0.2,1.2-0.3c1.6-0.1,2.9-0.7,3.8-1.8c0.9-1.1,1.3-2.5,1.3-4.4l0-1.5
				V27.3c0-1.7-0.9-2.5-2.7-2.5c-4.2,0-7,0.3-8.6,0.9c-1.1,0.5-1.8,1-2.2,1.6c-0.4,0.6-0.9,2-1.5,4.3l-0.3,0.9
				c-0.2,0.9-0.6,1.3-1.1,1.3c-0.7,0-1-0.3-1-1c0-0.6,0.1-1.4,0.3-2.4l0.3-2.7l0.4-2.8l0.2-1.9c0.1-0.8,0.5-1.2,1.3-1.2
				c0.2,0,0.6,0,1.1,0.1c0.8,0.1,2,0.1,3.5,0.1l6.4,0.1l7.6,0.1c4.9,0,10.1-0.1,15.6-0.4c1.1,0,1.8-0.1,2.1-0.1
				c1.1,0,1.8,0.5,1.8,1.4l0.2,2.3c0,0.4,0.1,1.2,0.3,2.5c0.1,1.1,0.2,2,0.2,2.7c0,0.7-0.3,1-0.8,1c-0.5,0-0.8-0.4-1-1.2
				c-0.4-2-1.3-3.4-2.5-4.2c-1.2-0.9-3-1.3-5.4-1.3c-3.2,0-5.2,0.2-5.9,0.7C47.2,26,46.8,27.3,46.8,29.2z"/>
		</g>
		<path class="st1" d="M85.6,85.8H0.4V0.6h85.2V85.8z M1.1,85.2H85V1.3H1.1V85.2z"/>
	</g>
</g>
</svg>
